<?xml version="1.0" encoding="UTF-8" standalone="no"?>
<!DOCTYPE svg PUBLIC "-//W3C//DTD SVG 1.1//EN" "http://www.w3.org/Graphics/SVG/1.1/DTD/svg11.dtd">
<svg width="100%" height="100%" viewBox="0 0 1000 1000" version="1.1" xmlns="http://www.w3.org/2000/svg" xmlns:xlink="http://www.w3.org/1999/xlink" xml:space="preserve" xmlns:serif="http://www.serif.com/" style="fill-rule:evenodd;clip-rule:evenodd;stroke-linejoin:round;stroke-miterlimit:2;">
    <g transform="matrix(1,0,0,1,-1087.32,-2134.54)">
        <g id="flat-dark" serif:id="flat dark" transform="matrix(1,0,0,1,1087.32,2134.54)">
            <rect x="0" y="0" width="1000" height="1000" style="fill:none;"/>
            <g transform="matrix(1,0,0,1,0.581902,37.3684)">
                <g>
                    <g transform="matrix(0.953869,0,0,0.953869,-2126.45,-2042.23)">
                        <path d="M2401.08,2811.03L2497.1,2811.03C2497.1,2860.26 2511.08,2906.25 2535.29,2945.24L2401.08,2811.03Z" style="fill:rgb(255,180,39);"/>
                    </g>
                    <g transform="matrix(0.953869,0,0,0.953869,-2126.45,-2042.23)">
                        <path d="M2535.29,2676.81C2511.08,2715.8 2497.1,2761.79 2497.1,2811.03L2401.08,2811.03L2535.29,2676.81Z" style="fill:rgb(255,202,102);"/>
                    </g>
                </g>
                <g>
                    <g transform="matrix(0.953869,0,0,0.953869,-2126.45,-2042.23)">
                        <path d="M3104.64,2811.03L2965.85,2949.81C2991.85,2909.87 3006.96,2862.2 3006.96,2811.03L3104.64,2811.03Z" style="fill:rgb(255,180,39);"/>
                    </g>
                    <g transform="matrix(0.953869,0,0,0.953869,-2126.45,-2042.23)">
                        <path d="M3104.64,2811.03L3006.96,2811.03C3006.96,2759.85 2991.85,2712.18 2965.85,2672.24L3104.64,2811.03Z" style="fill:rgb(255,202,102);"/>
                    </g>
                </g>
                <g transform="matrix(2.24981,0,0,2.24981,-1482.2,-1533.6)">
                    <g transform="matrix(0.429337,0.115041,-0.115041,0.429337,724.952,627.792)">
                        <path d="M603.597,385.509L603.597,426.438C695.807,455.691 762.703,542.028 762.703,643.866C762.703,769.732 660.517,871.919 534.651,871.919C408.785,871.919 306.598,769.732 306.598,643.866C306.598,542.028 373.494,455.691 465.705,426.438L465.705,171.85L460.401,171.85C451.62,171.85 444.491,164.721 444.491,155.94C444.491,147.158 451.62,140.029 460.401,140.029L608.901,140.029C617.682,140.029 624.811,147.158 624.811,155.94C624.811,164.721 617.682,171.85 608.901,171.85L606.565,171.85L606.565,171.821C606.565,171.821 570.851,171.821 570.851,171.821C563.132,171.821 556.865,175.278 556.865,179.537C556.865,183.795 563.132,187.252 570.851,187.252L603.597,187.252L603.597,228.224L570.851,228.224C563.132,228.224 556.865,231.681 556.865,235.94C556.865,240.198 563.132,243.655 570.851,243.655L603.597,243.655L603.597,270.949L535.137,270.949C527.418,270.949 521.151,274.406 521.151,278.665C521.151,282.923 527.418,286.38 535.137,286.38L603.597,286.38L603.597,325.619L570.851,325.619C563.132,325.619 556.865,329.077 556.865,333.335C556.865,337.593 563.132,341.051 570.851,341.051L603.597,341.051L603.597,370.077L570.851,370.077C563.132,370.077 556.865,373.534 556.865,377.793C556.865,382.051 563.132,385.509 570.851,385.509L603.597,385.509Z" style="fill:rgb(102,154,255);"/>
                        <clipPath id="_clip1">
                            <path d="M603.597,385.509L603.597,426.438C695.807,455.691 762.703,542.028 762.703,643.866C762.703,769.732 660.517,871.919 534.651,871.919C408.785,871.919 306.598,769.732 306.598,643.866C306.598,542.028 373.494,455.691 465.705,426.438L465.705,171.85L460.401,171.85C451.62,171.85 444.491,164.721 444.491,155.94C444.491,147.158 451.62,140.029 460.401,140.029L608.901,140.029C617.682,140.029 624.811,147.158 624.811,155.94C624.811,164.721 617.682,171.85 608.901,171.85L606.565,171.85L606.565,171.821C606.565,171.821 570.851,171.821 570.851,171.821C563.132,171.821 556.865,175.278 556.865,179.537C556.865,183.795 563.132,187.252 570.851,187.252L603.597,187.252L603.597,228.224L570.851,228.224C563.132,228.224 556.865,231.681 556.865,235.94C556.865,240.198 563.132,243.655 570.851,243.655L603.597,243.655L603.597,270.949L535.137,270.949C527.418,270.949 521.151,274.406 521.151,278.665C521.151,282.923 527.418,286.38 535.137,286.38L603.597,286.38L603.597,325.619L570.851,325.619C563.132,325.619 556.865,329.077 556.865,333.335C556.865,337.593 563.132,341.051 570.851,341.051L603.597,341.051L603.597,370.077L570.851,370.077C563.132,370.077 556.865,373.534 556.865,377.793C556.865,382.051 563.132,385.509 570.851,385.509L603.597,385.509Z"/>
                        </clipPath>
                        <g clip-path="url(#_clip1)">
                            <g transform="matrix(1.2308,-8.81157e-17,1.16188e-16,7.38958,-124.168,-923.007)">
                                <path d="M461.969,148.156L607.433,148.156C608.728,148.156 609.78,147.105 609.78,145.809C609.78,144.513 608.728,143.462 607.433,143.462L461.969,143.462C460.674,143.462 459.622,144.513 459.622,145.809C459.622,147.105 460.674,148.156 461.969,148.156Z" style="fill:rgb(199,230,255);"/>
                            </g>
                        </g>
                    </g>
                    <g transform="matrix(0.444483,0,0,0.444483,186.208,186.58)">
                        <path d="M1347.71,1753.27L1347.71,1752.95C1347.71,1723.4 1371.7,1699.41 1401.25,1699.41L1401.61,1699.39C1425.34,1698.34 1456.6,1721.61 1491.26,1750.74C1467.93,1772.39 1446.25,1791.39 1425.66,1800.6C1418.45,1804.3 1410.3,1806.42 1401.66,1806.48L1401.25,1806.48L1400.9,1806.48C1397.48,1806.46 1394.14,1806.12 1390.91,1805.48L1390.89,1805.48C1390.61,1805.42 1390.32,1805.37 1390.03,1805.31L1390.03,1805.31C1389.47,1805.18 1388.91,1805.06 1388.36,1804.92L1388.31,1804.91L1388.09,1804.85L1388.01,1804.83L1387.81,1804.78L1387.71,1804.76L1387.51,1804.7L1387.41,1804.68L1387.22,1804.62L1387.11,1804.6L1386.93,1804.54L1386.82,1804.52L1386.63,1804.46L1386.35,1804.38L1386.2,1804.34L1386.05,1804.29L1385.91,1804.25L1385.75,1804.2L1385.62,1804.16L1385.45,1804.11L1385.32,1804.07L1385.15,1804.02L1385.03,1803.98L1384.84,1803.92L1384.74,1803.88L1384.52,1803.81L1384.44,1803.79L1384.14,1803.69L1383.84,1803.59L1383.8,1803.57L1383.55,1803.48L1383.48,1803.46L1383.25,1803.38L1383.17,1803.35L1382.95,1803.27L1382.88,1803.25L1382.64,1803.16L1382.59,1803.14L1382.32,1803.04L1382.29,1803.03C1381.89,1802.88 1381.49,1802.72 1381.1,1802.56L1381.07,1802.55L1380.8,1802.44L1380.77,1802.42L1380.5,1802.31L1380.48,1802.3C1377.23,1800.93 1374.15,1799.25 1371.27,1797.3L1371,1797.12L1370.89,1797.04L1370.81,1796.99L1370.53,1796.79L1370.38,1796.68L1370.05,1796.45L1369.9,1796.34L1369.57,1796.1L1369.42,1795.99L1369.16,1795.79L1369.07,1795.73L1368.97,1795.65L1368.71,1795.45L1368.57,1795.34L1368.25,1795.1L1368.1,1794.98L1367.78,1794.73L1367.64,1794.61L1367.36,1794.38L1367.31,1794.34L1367.19,1794.25L1366.94,1794.04L1366.81,1793.93L1366.8,1793.92L1366.5,1793.66L1366.36,1793.54L1366.05,1793.28L1365.91,1793.16L1365.61,1792.89L1365.61,1792.88L1365.48,1792.77L1365.23,1792.55L1365.13,1792.45L1365.08,1792.41L1364.81,1792.16L1364.68,1792.04L1364.38,1791.76L1364.25,1791.63L1363.96,1791.35L1363.84,1791.23L1363.58,1790.98L1363.51,1790.91L1363.44,1790.84L1363.19,1790.59L1363.07,1790.47L1362.78,1790.17L1362.66,1790.05L1362.37,1789.74L1362.26,1789.62L1361.99,1789.34L1361.95,1789.3L1361.88,1789.21L1361.63,1788.94L1361.53,1788.83L1361.24,1788.51L1361.13,1788.39L1360.85,1788.07L1360.75,1787.95L1360.46,1787.62L1360.38,1787.52L1360.13,1787.23L1360.05,1787.13L1360.05,1787.13L1359.77,1786.79L1359.68,1786.67L1359.4,1786.34L1359.31,1786.22L1359.04,1785.87L1358.95,1785.76L1358.71,1785.45L1358.66,1785.38L1358.63,1785.34L1358.38,1785.01L1358.29,1784.89L1358.03,1784.54L1357.94,1784.42L1357.68,1784.06L1357.61,1783.95L1357.36,1783.6L1357.33,1783.57L1357.29,1783.5L1357.05,1783.16L1356.98,1783.06L1356.73,1782.68L1356.62,1782.52L1356.6,1782.49L1356.45,1782.26L1356.42,1782.22L1356.27,1781.98L1356.26,1781.96C1356.03,1781.61 1355.8,1781.25 1355.58,1780.89L1355.56,1780.86L1355.42,1780.62L1355.39,1780.58L1355.26,1780.36L1355.23,1780.31L1355.09,1780.08L1355.07,1780.04L1354.92,1779.79L1354.91,1779.77L1354.75,1779.49C1354.7,1779.4 1354.65,1779.31 1354.59,1779.21L1354.44,1778.94L1354.42,1778.91L1354.29,1778.67L1354.26,1778.62L1354.14,1778.4L1354.11,1778.33L1353.99,1778.12L1353.96,1778.06L1353.84,1777.84L1353.81,1777.78L1353.68,1777.53L1353.67,1777.51L1353.53,1777.23L1353.38,1776.94L1353.37,1776.92L1353.24,1776.66L1353.21,1776.61L1353.11,1776.39L1353.07,1776.31L1352.97,1776.11L1352.93,1776.03L1352.83,1775.82L1352.8,1775.75L1352.69,1775.52L1352.67,1775.47L1352.54,1775.19L1352.4,1774.89L1352.28,1774.61L1352.25,1774.55L1352.15,1774.33L1352.12,1774.25L1352.03,1774.04L1351.99,1773.95L1351.91,1773.75L1351.87,1773.66L1351.78,1773.46L1351.75,1773.38L1351.66,1773.15L1351.63,1773.09L1351.52,1772.8L1351.4,1772.5L1351.38,1772.47L1351.29,1772.22L1351.26,1772.13L1351.17,1771.93L1351.14,1771.83L1351.07,1771.63L1351.03,1771.54L1350.96,1771.34L1350.92,1771.24L1350.85,1771.04L1350.82,1770.95L1350.73,1770.71L1350.71,1770.66L1350.61,1770.36L1350.51,1770.06L1350.48,1769.99L1350.41,1769.77L1350.38,1769.67L1350.31,1769.47L1350.28,1769.36L1350.21,1769.17L1350.18,1769.06L1350.12,1768.87L1350.09,1768.77L1350.02,1768.56L1350,1768.47L1349.92,1768.21L1349.91,1768.17L1349.82,1767.86L1349.8,1767.81L1349.73,1767.57L1349.7,1767.47L1349.65,1767.26L1349.62,1767.15L1349.56,1766.96L1349.53,1766.85L1349.48,1766.66L1349.45,1766.54L1349.4,1766.35L1349.37,1766.24L1349.32,1766.02L1349.3,1765.93L1349.22,1765.63L1349.15,1765.32L1349.13,1765.24L1349.08,1765.02L1349.05,1764.91L1349.01,1764.71L1348.98,1764.59L1348.94,1764.4L1348.91,1764.28L1348.87,1764.09L1348.85,1763.97L1348.81,1763.77L1348.78,1763.66L1348.74,1763.43L1348.72,1763.35L1348.66,1763.04L1348.65,1762.99L1348.6,1762.73L1348.58,1762.63L1348.55,1762.42L1348.52,1762.3L1348.49,1762.11L1348.47,1761.99L1348.44,1761.8L1348.42,1761.67L1348.38,1761.48L1348.37,1761.36L1348.33,1761.15L1348.32,1761.04L1348.28,1760.77L1348.27,1760.73L1348.23,1760.41L1348.21,1760.32L1348.18,1760.1L1348.17,1759.98L1348.14,1759.78L1348.12,1759.66L1348.1,1759.47L1348.09,1759.34L1348.06,1759.14L1348.05,1759.02L1348.03,1758.82L1348.01,1758.7L1347.99,1758.48L1347.98,1758.38L1347.95,1758.06L1347.95,1758.02L1347.92,1757.74L1347.91,1757.63L1347.89,1757.42L1347.88,1757.3L1347.87,1757.1L1347.86,1756.97L1347.84,1756.78L1347.83,1756.65L1347.82,1756.45L1347.81,1756.33L1347.8,1756.12L1347.79,1756L1347.78,1755.75L1347.78,1755.68L1347.76,1755.36L1347.76,1755.27L1347.75,1755.04L1347.74,1754.92L1347.74,1754.71L1347.73,1754.58L1347.73,1754.38L1347.72,1754.25L1347.72,1754.06L1347.72,1753.92L1347.71,1753.73L1347.71,1753.6L1347.71,1753.38L1347.71,1753.27Z" style="fill:rgb(102,187,255);"/>
                    </g>
                    <g transform="matrix(0.444483,0,0,0.444483,186.208,186.58)">
                        <path d="M1401.25,1806.48C1410.04,1806.48 1418.34,1804.36 1425.66,1800.6C1490.37,1771.67 1565.86,1645.93 1668.93,1645.87C1731.93,1645.84 1776.01,1694.62 1776.01,1752.95C1776.01,1871.14 1680.05,1967.1 1561.86,1967.1C1443.67,1967.1 1347.71,1871.14 1347.71,1752.95C1347.71,1778.95 1366.29,1800.66 1390.89,1805.48C1394.11,1806.15 1397.56,1806.51 1401.25,1806.48Z" style="fill:rgb(140,204,255);"/>
                    </g>
                </g>
                <g>
                    <g transform="matrix(0.377827,2.77556e-17,-2.77556e-17,0.377827,372.731,72.4515)">
                        <circle cx="712.621" cy="104.712" r="54.712" style="fill:rgb(255,180,39);"/>
                    </g>
                    <g transform="matrix(0.531618,5.55112e-17,-5.55112e-17,0.531618,301.878,6.07416)">
                        <circle cx="712.621" cy="104.712" r="54.712" style="fill:rgb(255,180,39);"/>
                    </g>
                    <g transform="matrix(0.268028,2.77556e-17,-2.77556e-17,0.268028,408.267,42.3578)">
                        <circle cx="712.621" cy="104.712" r="54.712" style="fill:rgb(255,180,39);"/>
                    </g>
                </g>
            </g>
        </g>
    </g>
</svg>
